delta: 3072
Note On (channel 0): B3 with velocity 100
delta: 48
Note Off (channel 0): B3 with velocity 64
delta: 53
Note On (channel 0): C4 with velocity 100
delta: 48
Note Off (channel 0): C4 with velocity 64
delta: 45
Note On (channel 0): C4 with velocity 100
delta: 48
Note Off (channel 0): C4 with velocity 64
delta: 437
Note On (channel 0): C#4 with velocity 100
delta: 48
Note Off (channel 0): C#4 with velocity 64
delta: 41
Note On (channel 0): B3 with velocity 100
delta: 48
Note Off (channel 0): B3 with velocity 64
delta: 53
Note On (channel 0): C4 with velocity 100
delta: 48
Note Off (channel 0): C4 with velocity 64
delta: 45
Note On (channel 0): C4 with velocity 100
delta: 48
Note Off (channel 0): C4 with velocity 64
delta: 437
Note On (channel 0): C#4 with velocity 100
delta: 48
Note Off (channel 0): C#4 with velocity 64
delta: 41
Note On (channel 0): B3 with velocity 100
delta: 48
Note Off (channel 0): B3 with velocity 64
delta: 53
Note On (channel 0): C4 with velocity 100
delta: 48
Note Off (channel 0): C4 with velocity 64
delta: 45
Note On (channel 0): C4 with velocity 100
delta: 48
Note Off (channel 0): C4 with velocity 64
delta: 437
Note On (channel 0): C#4 with velocity 100
delta: 48
Note Off (channel 0): C#4 with velocity 64
delta: 41
Note On (channel 0): B3 with velocity 100
delta: 48
Note Off (channel 0): B3 with velocity 64
delta: 53
Note On (channel 0): C4 with velocity 100
delta: 48
Note Off (channel 0): C4 with velocity 64
delta: 45
Note On (channel 0): C4 with velocity 100
delta: 48
Note Off (channel 0): C4 with velocity 64
delta: 12046
Note On (channel 0): D4 with velocity 100
delta: 48
Note Off (channel 0): D4 with velocity 64
delta: 144
Note On (channel 0): D4 with velocity 100
delta: 48
Note Off (channel 0): D4 with velocity 64
delta: 144
Note On (channel 0): D4 with velocity 100
delta: 48
Note Off (channel 0): D4 with velocity 64
delta: 9552
Note On (channel 0): B3 with velocity 100
delta: 48
Note Off (channel 0): B3 with velocity 64
delta: 53
Note On (channel 0): C4 with velocity 100
delta: 48
Note Off (channel 0): C4 with velocity 64
delta: 45
Note On (channel 0): C4 with velocity 100
delta: 48
Note Off (channel 0): C4 with velocity 64
delta: 437
Note On (channel 0): C#4 with velocity 100
delta: 48
Note Off (channel 0): C#4 with velocity 64
delta: 41
Note On (channel 0): B3 with velocity 100
delta: 48
Note Off (channel 0): B3 with velocity 64
delta: 53
Note On (channel 0): C4 with velocity 100
delta: 48
Note Off (channel 0): C4 with velocity 64
delta: 45
Note On (channel 0): C4 with velocity 100
delta: 48
Note Off (channel 0): C4 with velocity 64
delta: 437
Note On (channel 0): C#4 with velocity 100
delta: 48
Note Off (channel 0): C#4 with velocity 64
delta: 41
Note On (channel 0): B3 with velocity 100
delta: 48
Note Off (channel 0): B3 with velocity 64
delta: 53
Note On (channel 0): C4 with velocity 100
delta: 48
Note Off (channel 0): C4 with velocity 64
delta: 45
Note On (channel 0): C4 with velocity 100
delta: 48
Note Off (channel 0): C4 with velocity 64
delta: 437
Note On (channel 0): C#4 with velocity 100
delta: 48
Note Off (channel 0): C#4 with velocity 64
delta: 41
Note On (channel 0): B3 with velocity 100
delta: 48
Note Off (channel 0): B3 with velocity 64
delta: 53
Note On (channel 0): C4 with velocity 100
delta: 48
Note Off (channel 0): C4 with velocity 64
delta: 45
Note On (channel 0): C4 with velocity 100
delta: 48
Note Off (channel 0): C4 with velocity 64
delta: 437
Note On (channel 0): C#4 with velocity 100
delta: 48
Note Off (channel 0): C#4 with velocity 64
delta: 41
Note On (channel 0): D4 with velocity 100
delta: 48
Note Off (channel 0): D4 with velocity 64
delta: 48
Note On (channel 0): F#3 with velocity 100
delta: 48
Note Off (channel 0): F#3 with velocity 64
delta: 53
Note On (channel 0): C4 with velocity 100
delta: 48
Note Off (channel 0): C4 with velocity 64
delta: 45
Note On (channel 0): C4 with velocity 100
delta: 48
Note Off (channel 0): C4 with velocity 64
delta: 101
Note On (channel 0): C#4 with velocity 100
delta: 48
Note Off (channel 0): C#4 with velocity 64
delta: 281
Note On (channel 0): D4 with velocity 100
delta: 48
Note Off (channel 0): D4 with velocity 64
delta: 48
Note On (channel 0): F#3 with velocity 100
delta: 48
Note Off (channel 0): F#3 with velocity 64
delta: 53
Note On (channel 0): C4 with velocity 100
delta: 48
Note Off (channel 0): C4 with velocity 64
delta: 45
Note On (channel 0): C4 with velocity 100
delta: 48
Note Off (channel 0): C4 with velocity 64
delta: 101
Note On (channel 0): C#4 with velocity 100
delta: 48
Note Off (channel 0): C#4 with velocity 64
delta: 281
Note On (channel 0): D4 with velocity 100
delta: 48
Note Off (channel 0): D4 with velocity 64
delta: 48
Note On (channel 0): F#3 with velocity 100
delta: 48
Note Off (channel 0): F#3 with velocity 64
delta: 53
Note On (channel 0): C4 with velocity 100
delta: 48
Note Off (channel 0): C4 with velocity 64
delta: 45
Note On (channel 0): C4 with velocity 100
delta: 48
Note Off (channel 0): C4 with velocity 64
delta: 101
Note On (channel 0): C#4 with velocity 100
delta: 48
Note Off (channel 0): C#4 with velocity 64
delta: 281
Note On (channel 0): D4 with velocity 100
delta: 48
Note Off (channel 0): D4 with velocity 64
delta: 144
Note On (channel 0): D4 with velocity 100
delta: 48
Note Off (channel 0): D4 with velocity 64
delta: 144
Note On (channel 0): D4 with velocity 100
delta: 48
Note Off (channel 0): D4 with velocity 64
delta: 0
